<?xml version="1.0" standalone="no"?>
<!DOCTYPE svg PUBLIC "-//W3C//DTD SVG 20010904//EN"
 "http://www.w3.org/TR/2001/REC-SVG-20010904/DTD/svg10.dtd">
<svg version="1.0" xmlns="http://www.w3.org/2000/svg"
 width="560.000000pt" height="560.000000pt" viewBox="0 0 560.000000 560.000000"
 preserveAspectRatio="xMidYMid meet">
<metadata>
Created by potrace 1.11, written by Peter Selinger 2001-2013
</metadata>
<g transform="translate(0.000000,560.000000) scale(0.100000,-0.100000)"
fill="#000000" stroke="none">
<path d="M0 2800 l0 -2800 2800 0 2800 0 0 2800 0 2800 -2800 0 -2800 0 0
-2800z m4275 856 c196 -52 312 -164 369 -354 17 -59 30 -50 -102 -77 -90 -19
-92 -18 -92 0 0 40 -59 142 -105 183 -76 67 -151 85 -328 80 -155 -5 -211 -19
-280 -72 -59 -45 -80 -101 -75 -204 3 -76 7 -94 30 -129 42 -63 124 -99 310
-134 243 -46 352 -75 430 -112 182 -88 258 -227 246 -448 -5 -77 -11 -100 -41
-163 -66 -132 -197 -226 -367 -262 -110 -23 -377 -15 -480 15 -108 32 -181 75
-250 147 -65 68 -109 151 -129 242 -21 98 -26 93 96 90 l107 -3 11 -46 c30
-117 101 -201 202 -239 85 -32 234 -46 334 -32 195 27 289 121 289 286 0 93
-16 135 -70 187 -60 59 -114 77 -368 124 -105 19 -229 49 -275 65 -218 80
-303 206 -296 438 4 94 8 114 34 167 67 139 217 233 420 266 77 12 312 3 380
-15z m-2355 -111 l0 -95 -425 0 -425 0 0 -260 0 -260 400 0 400 0 0 -95 0 -95
-400 0 -400 0 0 -280 0 -280 446 0 446 0 -7 -47 c-4 -27 -11 -69 -17 -95 l-10
-48 -539 0 -539 0 0 818 c0 450 3 822 7 825 3 4 244 7 535 7 l528 0 0 -95z
m1328 -2 l3 -93 -406 0 -405 0 0 -270 0 -270 380 0 380 0 0 -95 0 -95 -380 0
-380 0 0 -365 0 -365 -110 0 -110 0 0 818 c0 450 3 822 7 825 3 4 234 6 512 5
l506 -3 3 -92z"/>
</g>
</svg>
